<?xml version="1.0" encoding="iso-8859-1"?>
<!-- Generator: Adobe Illustrator 19.0.0, SVG Export Plug-In . SVG Version: 6.00 Build 0)  -->
<svg version="1.1" id="Layer_1" xmlns="http://www.w3.org/2000/svg" xmlns:xlink="http://www.w3.org/1999/xlink" x="0px" y="0px"
	 viewBox="0 0 297 297" style="enable-background:new 0 0 297 297;" xml:space="preserve">
<g>
	<g>
		<path style="fill:#EB6A0F;" d="M130.18,11.254l119.485,39.828c8.276,2.759,8.276,14.464,0,17.223L130.18,108.133V11.254z"/>
	</g>
	<path style="fill:#575760;" d="M130.18,0c-6.216,0-11.254,5.038-11.254,11.254v242.199c0,6.216,5.038,11.254,11.254,11.254
		s11.254-5.038,11.254-11.254V11.254C141.434,5.038,136.396,0,130.18,0z"/>
	<path style="fill:#45454C;" d="M130.18,0c-0.22,0-0.435,0.02-0.652,0.033v264.641c0.217,0.013,0.432,0.033,0.652,0.033
		c6.216,0,11.254-5.038,11.254-11.254V11.254C141.434,5.038,136.396,0,130.18,0z"/>
	<path style="fill:#4A4A52;" d="M130.18,145.32c-41.818,0-75.84,34.022-75.84,75.84S88.361,297,130.18,297s75.84-34.022,75.84-75.84
		S171.999,145.32,130.18,145.32z"/>
	<path style="fill:#38383D;" d="M130.18,145.32c-0.219,0-0.434,0.015-0.652,0.017v151.647c0.218,0.002,0.433,0.016,0.652,0.016
		c41.818,0,75.84-34.022,75.84-75.84S171.999,145.32,130.18,145.32z"/>
	<g>
		<path style="fill:#FA961E;" d="M207.978,232.414H52.382c-6.216,0-11.254-5.038-11.254-11.254s5.038-11.254,11.254-11.254h155.595
			c6.216,0,11.254,5.038,11.254,11.254S214.193,232.414,207.978,232.414z"/>
	</g>
	<g>
		<path style="fill:#DD7E17;" d="M207.978,209.906h-78.449v22.507h78.449c6.216,0,11.254-5.038,11.254-11.254
			S214.193,209.906,207.978,209.906z"/>
	</g>
</g>
<g>
</g>
<g>
</g>
<g>
</g>
<g>
</g>
<g>
</g>
<g>
</g>
<g>
</g>
<g>
</g>
<g>
</g>
<g>
</g>
<g>
</g>
<g>
</g>
<g>
</g>
<g>
</g>
<g>
</g>
</svg>
